<?xml version="1.0" encoding="utf-8"?>
<!-- Generator: Adobe Illustrator 26.1.0, SVG Export Plug-In . SVG Version: 6.00 Build 0)  -->
<svg version="1.1" id="visual" xmlns="http://www.w3.org/2000/svg" xmlns:xlink="http://www.w3.org/1999/xlink" x="0px" y="0px"
	 viewBox="0 0 900 300" style="enable-background:new 0 0 900 300;" xml:space="preserve">
<style type="text/css">
	.st0{fill:#FF0066;}
	.st1{fill:#BD2B84;}
	.st2{fill:#733C81;}
	.st3{fill:#373860;}
	.st4{fill:#202731;}
</style>
<path class="st0" d="M900,183l-13.7,11.5c-13.6,11.5-41,34.5-68.3,44s-54.7,5.5-81.8,6.5c-27.2,1-54.2,7-81.4,0.5
	C627.7,239,600.3,220,573,221s-54.7,22-82,21s-54.7-24-82-30s-54.7,5-82,9s-54.7,1-81.8,0c-27.2-1-54.2,0-81.4,4.5
	c-27.1,4.5-54.5,12.5-81.8,12s-54.7-9.5-68.3-14L0,219l0,82h13.7c13.6,0,41,0,68.3,0s54.7,0,81.8,0c27.2,0,54.2,0,81.4,0
	c27.1,0,54.5,0,81.8,0s54.7,0,82,0s54.7,0,82,0s54.7,0,82,0s54.7,0,81.8,0c27.2,0,54.2,0,81.4,0c27.1,0,54.5,0,81.8,0s54.7,0,68.3,0
	H900V183z"/>
<path class="st1" d="M900,138l-13.7,12c-13.6,12-41,36-68.3,47s-54.7,9-81.8,11c-27.2,2-54.2,8-81.4,4c-27.1-4-54.5-18-81.8-15.5
	s-54.7,21.5-82,16S436.3,177,409,169s-54.7,6-82,14s-54.7,10-81.8,10c-27.2,0-54.2-2-81.4,3.5c-27.1,5.5-54.5,18.5-81.8,15
	S27.3,188,13.7,178L0,168l0,53l13.7,4.5c13.6,4.5,41,13.5,68.3,14s54.7-7.5,81.8-12C191,223,218,222,245.2,223c27.1,1,54.5,4,81.8,0
	s54.7-15,82-9s54.7,29,82,30s54.7-20,82-21s54.7,18,81.8,24.5C682,254,709,248,736.2,247c27.1-1,54.5,3,81.8-6.5s54.7-32.5,68.3-44
	L900,185V138z"/>
<path class="st2" d="M900,108l-13.7,8.5c-13.6,8.5-41,25.5-68.3,29.5s-54.7-5-81.8-4.5C709,142,682,152,654.8,147
	c-27.1-5-54.5-25-81.8-25s-54.7,20-82,19.5s-54.7-21.5-82-28s-54.7,1.5-82,13s-54.7,26.5-81.8,29C218,158,191,148,163.8,152
	c-27.1,4-54.5,22-81.8,20s-54.7-24-68.3-35L0,126l0,44l13.7,10c13.6,10,41,30,68.3,33.5s54.7-9.5,81.8-15C191,193,218,195,245.2,195
	c27.1,0,54.5-2,81.8-10s54.7-22,82-14s54.7,38,82,43.5s54.7-13.5,82-16s54.7,11.5,81.8,15.5c27.2,4,54.2-2,81.4-4
	c27.1-2,54.5,0,81.8-11s54.7-35,68.3-47l13.7-12V108z"/>
<path class="st3" d="M900,45l-13.7-2.5c-13.6-2.5-41-7.5-68.3-5s-54.7,12.5-81.8,17C709,59,682,58,654.8,58.5
	C627.7,59,600.3,61,573,61s-54.7-2-82-6s-54.7-10-82-14.5S354.3,33,327,35s-54.7,9-81.8,8.5C218,43,191,35,163.8,32.5
	C136.7,30,109.3,33,82,38S27.3,50,13.7,53.5L0,57l0,71l13.7,11c13.6,11,41,33,68.3,35s54.7-16,81.8-20c27.2-4,54.2,6,81.4,3.5
	c27.1-2.5,54.5-17.5,81.8-29s54.7-19.5,82-13s54.7,27.5,82,28s54.7-19.5,82-19.5s54.7,20,81.8,25c27.2,5,54.2-5,81.4-5.5
	c27.1-0.5,54.5,8.5,81.8,4.5s54.7-21,68.3-29.5L900,110V45z"/>
<path class="st4" d="M900,0l-13.7,0c-13.6,0-41,0-68.3,0c-27.3,0-54.7,0-81.8,0C709,0,682,0,654.8,0c-27.1,0-54.5,0-81.8,0
	c-27.3,0-54.7,0-82,0c-27.3,0-54.7,0-82,0c-27.3,0-54.7,0-82,0c-27.3,0-54.7,0-81.8,0C218,0,191,0,163.8,0C136.7,0,109.3,0,82,0
	C54.7,0,27.3,0,13.7,0L0,0l0,59l13.7-3.5C27.3,52,54.7,45,82,40s54.7-8,81.8-5.5C191,37,218,45,245.2,45.5C272.3,46,299.7,39,327,37
	s54.7,1,82,5.5S463.7,53,491,57s54.7,6,82,6s54.7-2,81.8-2.5c27.2-0.5,54.2,0.5,81.4-4c27.1-4.5,54.5-14.5,81.8-17s54.7,2.5,68.3,5
	L900,47V0z"/>
</svg>
