<?xml version="1.0" encoding="utf-8"?>
<!-- Generator: Adobe Illustrator 26.1.0, SVG Export Plug-In . SVG Version: 6.00 Build 0)  -->
<svg version="1.1" id="visual" xmlns="http://www.w3.org/2000/svg" xmlns:xlink="http://www.w3.org/1999/xlink" x="0px" y="0px"
	 viewBox="0 0 960 300" style="enable-background:new 0 0 960 300;" xml:space="preserve">
<style type="text/css">
	.st0{fill:#202731;}
	.st1{fill:#6E1869;}
	.st2{fill:#9E0861;}
	.st3{fill:#C5174D;}
	.st4{fill:#DD3F31;}
</style>
<rect x="0" y="0" class="st0" width="960" height="300"/>
<path class="st1" d="M960,138l-16-8.2c-16-8.1-48-24.5-80-29.5s-64,1.4-96,2.5c-32,1.2-64-2.8-96-0.8s-64,10-96,7.3
	c-32-2.6-64-16-96-20.5s-64-0.1-96-0.8s-64-6.3-96-0.8s-64,22.1-96,21.5C160,108,128,90,96,89.2c-32-0.9-64,15.5-80,23.6L0,121
	l0,179h16c16,0,48,0,80,0s64,0,96,0s64,0,96,0s64,0,96,0s64,0,96,0s64,0,96,0s64,0,96,0s64,0,96,0s64,0,96,0s64,0,80,0h16V138z"/>
<path class="st2" d="M960,161l-16-7c-16-7-48-21-80-29.7c-32-8.6-64-12-96-6.8s-64,18.8-96,29.5s-64,18.3-96,21.8s-64,2.9-96-3.8
	s-64-19.3-96-27s-64-10.3-96-11.2c-32-0.8-64,0.2-96,1.7s-64,3.5-96,0.2c-32-3.4-64-12-80-16.4L0,108l0,192h16c16,0,48,0,80,0
	s64,0,96,0s64,0,96,0s64,0,96,0s64,0,96,0s64,0,96,0s64,0,96,0s64,0,96,0s64,0,96,0s64,0,80,0h16V161z"/>
<path class="st3" d="M960,202l-16-7.2c-16-7.1-48-21.5-80-21.1c-32,0.3-64,15.3-96,19c-32,3.6-64-4-96-1.2s-64,16.2-96,24.7
	s-64,12.1-96,3.8s-64-28.7-96-32.2s-64,9.9-96,19.9s-64,16.6-96,13c-32-3.7-64-17.7-96-27c-32-9.4-64-14-80-16.4L0,175l0,125h16
	c16,0,48,0,80,0s64,0,96,0s64,0,96,0s64,0,96,0s64,0,96,0s64,0,96,0s64,0,96,0s64,0,96,0s64,0,96,0s64,0,80,0h16V202z"/>
<path class="st4" d="M960,252l-16-0.2c-16-0.1-48-0.5-80-3.8s-64-9.7-96-15.8c-32-6.2-64-12.2-96-12.9c-32-0.6-64,4-96,5.4
	c-32,1.3-64-0.7-96,2.8s-64,12.5-96,14.3c-32,1.9-64-3.5-96-5.8s-64-1.7-96-3.2s-64-5.1-96-0.6s-64,17.1-80,23.5L0,262l0,38h16
	c16,0,48,0,80,0s64,0,96,0s64,0,96,0s64,0,96,0s64,0,96,0s64,0,96,0s64,0,96,0s64,0,96,0s64,0,96,0s64,0,80,0h16V252z"/>
</svg>
